# xmcd
#
# Track frame offsets: 
#        150
#        20139
#        36249
#        58619
#        79169
#        90372
#        104803
#        120633
#        136402
#        147414
#        160281
#        172677
#        183346
#        206006
#        217687
#        238615
#        252893
#        266390
#        278168
#        300598
#        327374
#
# Disc length: 4550 seconds
#
# Revision: 0
# Processed by: cddbd v1.5.2PL0 Copyright (c) Steve Scherf et al.
# Submitted via: ExactAudioCopy v0.99pb3
#
DISCID=2711c415
DTITLE=Various Artist - Music For The Mountains
DYEAR=2011
DGENRE=country
TTITLE0=Me, William, and the Moutain - Joey Kneiser
TTITLE1=High on the Mountain - Rabbit Hash String Band
TTITLE2=The Hand of Man - Magnolia Mountain
TTITLE3=Black Nag - Shiny and the Spoon
TTITLE4=Foggy Mountain Top - Ma Crow and Trina Emig
TTITLE5=Blood for Money - Duquette Johnston
TTITLE6=Build You Up - Kim Taylor
TTITLE7=Sugar Hill - Uncle Mike Carr and Tommy Taylor
TTITLE8=My Red River Home - The Tillers
TTITLE9=Forever Remain - The Rubber Knife Gang
TTITLE10=Mountain in Our Back Yard - Chuck Cleaver and Lisa Walker
TTITLE11=Clay's Room - Frontier Folk Nebraska
TTITLE12=White Hat Blues - The Hiders
TTITLE13=Coat Creek March - Michael Oberst with Bob Donisi
TTITLE14=Come Thou Fount - Janet Pressley
TTITLE15=Brookside Seventy-Three - Ed Cunningham and Brad Meinerding
TTITLE16=Coal Miner's Blues - Red Cedars
TTITLE17=Note to Jimmie Rodgers - Murder Creek Assembly
TTITLE18=The Price - Browngrass and Wildflowers
TTITLE19=Bluegrass Lullaby - Hickory Robot
TTITLE20=I've Endured - Sean Geil
EXTD=
EXTT0=
EXTT1=
EXTT2=
EXTT3=
EXTT4=
EXTT5=
EXTT6=
EXTT7=
EXTT8=
EXTT9=
EXTT10=
EXTT11=
EXTT12=
EXTT13=
EXTT14=
EXTT15=
EXTT16=
EXTT17=
EXTT18=
EXTT19=
EXTT20=
PLAYORDER=
